<?xml version="1.0" encoding="utf-8"?>
<svg viewBox="14.13 17.836 469.99 178.973" xmlns="http://www.w3.org/2000/svg">
    <path id="path22" style="fill:#333333;fill-opacity:1;fill-rule:nonzero;stroke:none"
        d="m 0,0 c 0,-18.113 -3.278,-33.064 -9.831,-44.859 -6.315,-11.679 -15.432,-17.515 -27.344,-17.515 -9.771,-0.121 -17.219,3.573 -22.341,11.08 -4.887,7.507 -7.506,16.144 -7.863,25.915 -0.12,9.889 1.904,18.704 6.075,26.451 4.171,7.865 10.663,13.879 19.483,18.051 C -20.614,29.727 -6.675,38.783 0,46.29 Z m 51.294,-65.413 c -5.961,1.788 -8.937,8.222 -8.937,19.303 v 89.719 c 0.118,15.964 -2.324,28.832 -7.328,38.604 -9.534,19.061 -33.183,28.596 -70.953,28.596 -22.282,-0.24 -39.797,-5.54 -52.545,-15.907 -7.747,-6.316 -11.321,-12.81 -10.723,-19.481 0.713,-4.646 2.74,-8.221 6.077,-10.724 3.931,-2.622 7.863,-3.456 11.795,-2.5 3.692,0.714 6.85,2.559 9.472,5.539 2.86,2.977 5.301,6.971 7.327,11.975 3.932,9.768 6.551,15.25 7.866,16.442 4.169,3.931 11.08,5.899 20.731,5.899 23.709,0 35.683,-7.748 35.924,-23.235 0.356,-20.374 -22.52,-38.666 -68.63,-54.868 -27.644,-9.534 -41.465,-26.692 -41.465,-51.472 0,-15.371 5.063,-27.585 15.192,-36.639 10.366,-8.936 23.234,-13.699 38.604,-14.297 13.821,-0.119 25.616,2.563 35.388,8.042 10.126,5.719 17.514,12.331 22.162,19.838 1.43,-17.755 14.178,-26.629 38.246,-26.629 12.748,0 25.795,4.468 39.141,13.403 l -2.86,5.541 c -9.533,-6.197 -17.694,-8.579 -24.484,-7.149"
        transform="matrix(0.664929, 0, 0, -0.664929, 266.645689, 144.636916)" />
    <path id="path26" style="fill:#333333;fill-opacity:1;fill-rule:nonzero;stroke:none"
        d="m 0,0 v 141.372 l -68.452,-10.009 v -6.256 c 16.68,2.977 24.96,-5.361 24.843,-25.022 L -43.609,0 c 0.117,-23.474 -8.163,-35.627 -24.843,-36.459 v -6.256 h 93.295 v 6.256 C 8.399,-35.507 0.116,-23.354 0,0"
        transform="matrix(0.664929, 0, 0, -0.664929, 368.014899, 165.671811)" />
    <path id="path30" style="fill:#333333;fill-opacity:1;fill-rule:nonzero;stroke:none"
        d="m 0,0 c 6.971,0 12.868,2.441 17.694,7.328 4.825,4.884 7.238,10.961 7.238,18.23 0,7.266 -2.501,13.163 -7.506,17.694 -4.647,5.12 -10.455,7.685 -17.426,7.685 -6.971,0 -12.957,-2.414 -17.961,-7.238 -5.005,-4.826 -7.507,-10.875 -7.507,-18.141 0,-7.269 2.502,-13.346 7.507,-18.23 C -12.957,2.441 -6.971,0 0,0"
        transform="matrix(0.664929, 0, 0, -0.664929, 352.981269, 51.705292)" />
    <path id="path34" style="fill:#333333;fill-opacity:1;fill-rule:nonzero;stroke:none"
        d="M 0,0 C -6.315,-41.463 -24.663,-62.195 -55.046,-62.195 H -89.54 l 81.32,162.996 v 8.578 h -115.634 l -4.468,-56.119 h 5.361 c 3.334,31.693 19.183,47.541 47.54,47.541 h 20.554 l -78.818,-163.354 v -8.221 H 0.181 L 5.363,0 Z"
        transform="matrix(0.664929, 0, 0, -0.664929, 480.554138, 147.014168)" />
    <path id="path38" style="fill:#333333;fill-opacity:1;fill-rule:nonzero;stroke:none"
        d="m 0,0 c 52.19,27.472 80.211,168.024 -74.138,168.024 h -88.948 -10e-4 C -160.665,80.15 19.154,120.308 19.154,47.219 19.154,24.45 -1.617,9.839 -13.038,5.742 -70.552,29.837 -135.622,43.436 -156.049,104.208 -145.086,32.127 -66.713,20.333 -17.663,-15.433 31.387,-51.198 8.503,-89.766 8.503,-89.766 H 81.405 C 69.929,-41.58 37.555,-17.446 0,0"
        transform="matrix(0.664929, 0, 0, -0.664929, 132.917681, 134.20844)" />
    <path id="path42" style="fill:#333333;fill-opacity:1;fill-rule:nonzero;stroke:none"
        d="m 0,0 v -58.918 l -0.001,10e-4 c 0.117,-23.474 -8.163,-35.627 -24.843,-36.459 v -6.256 l 108.703,0.001 C 42.095,-86.383 9.936,-47.87 0,0"
        transform="matrix(0.664929, 0, 0, -0.664929, 30.649778, 126.496172)" />
</svg>